<?xml version="1.0" encoding="utf-8"?>
<svg xmlns="http://www.w3.org/2000/svg"
	xmlns:xlink="http://www.w3.org/1999/xlink"
	width="13px" height="13px" viewBox="0 0 13 13">
<path fillRule="evenodd" d="M 12.7 10.04C 12.7 10.04 10.7 8.07 10.7 8.07 10.3 7.68 9.64 7.69 9.22 8.1 9.22 8.1 8.21 9.09 8.21 9.09 8.15 9.05 8.08 9.02 8.01 8.98 7.37 8.63 6.5 8.16 5.58 7.25 4.66 6.35 4.17 5.49 3.82 4.86 3.78 4.79 3.75 4.73 3.71 4.67 3.71 4.67 4.39 4 4.39 4 4.39 4 4.72 3.67 4.72 3.67 5.14 3.27 5.15 2.62 4.75 2.23 4.75 2.23 2.74 0.25 2.74 0.25 2.34-0.14 1.68-0.13 1.27 0.28 1.27 0.28 0.7 0.84 0.7 0.84 0.7 0.84 0.72 0.86 0.72 0.86 0.53 1.09 0.37 1.37 0.25 1.66 0.14 1.94 0.08 2.21 0.04 2.48-0.22 4.64 0.78 6.61 3.51 9.29 7.27 12.99 10.31 12.71 10.44 12.69 10.72 12.66 11 12.59 11.27 12.49 11.57 12.37 11.85 12.22 12.09 12.03 12.09 12.03 12.1 12.04 12.1 12.04 12.1 12.04 12.68 11.49 12.68 11.49 13.09 11.08 13.1 10.43 12.7 10.04Z" fill="rgb(175,175,175)" opacity="0.63"/></svg>