<?xml version="1.0" encoding="utf-8"?>
<svg xmlns="http://www.w3.org/2000/svg"
	xmlns:xlink="http://www.w3.org/1999/xlink"
	width="10px" height="14px" viewBox="0 0 10 14">
<path fillRule="evenodd" d="M 9.76 3.41C 9.71 3.23 9.61 3.03 9.53 2.86 8.6 0.75 6.57-0 4.93-0 2.74-0 0.32 1.39-0 4.25-0 4.25-0 4.83-0 4.83-0 4.86 0.01 5.08 0.02 5.19 0.2 6.55 1.34 8 2.19 9.36 3.11 10.83 4.06 12.26 5 13.7 5.58 12.76 6.16 11.81 6.73 10.9 6.88 10.63 7.06 10.36 7.22 10.11 7.32 9.94 7.52 9.77 7.61 9.61 8.53 8.02 10 6.43 10 4.86 10 4.86 10 4.21 10 4.21 10 4.04 9.78 3.45 9.76 3.41ZM 4.97 6.34C 4.33 6.34 3.62 6.04 3.27 5.2 3.22 5.07 3.23 4.8 3.23 4.77 3.23 4.77 3.23 4.4 3.23 4.4 3.23 3.32 4.19 2.84 5.03 2.84 6.06 2.84 6.86 3.62 6.86 4.59 6.86 5.57 6 6.34 4.97 6.34Z" fill="rgb(175,175,175)" opacity="0.63"/></svg>