<?xml version="1.0" encoding="utf-8"?>
<svg xmlns="http://www.w3.org/2000/svg"
	xmlns:xlink="http://www.w3.org/1999/xlink"
	width="101px" height="23px" viewBox="0 0 101 23">
<path fillRule="evenodd" d="M 100.78 18C 100.78 18 90.21 18 90.21 18 90.21 18 90.21 16.37 90.21 16.37 90.21 16.37 97.84 6.75 97.84 6.75 97.84 6.75 90.37 6.75 90.37 6.75 90.37 6.75 90.37 4.91 90.37 4.91 90.37 4.91 100.58 4.91 100.58 4.91 100.58 4.91 100.58 6.48 100.58 6.48 100.58 6.48 92.91 16.14 92.91 16.14 92.91 16.14 100.78 16.14 100.78 16.14 100.78 16.14 100.78 18 100.78 18ZM 86.11 16.44C 85.59 17.02 84.98 17.47 84.28 17.78 83.58 18.1 82.84 18.26 82.06 18.26 81.38 18.26 80.77 18.18 80.22 18.03 79.67 17.89 79.11 17.66 78.54 17.34 78.54 17.34 78.54 22.83 78.54 22.83 78.54 22.83 76.33 22.83 76.33 22.83 76.33 22.83 76.33 4.91 76.33 4.91 76.33 4.91 78.54 4.91 78.54 4.91 78.54 4.91 78.54 6.28 78.54 6.28 79.12 5.79 79.78 5.38 80.51 5.04 81.24 4.71 82.02 4.55 82.85 4.55 84.43 4.55 85.65 5.14 86.53 6.33 87.41 7.52 87.85 9.18 87.85 11.3 87.85 12.36 87.7 13.33 87.39 14.21 87.09 15.09 86.66 15.83 86.11 16.44ZM 84.77 7.82C 84.23 7.03 83.4 6.64 82.29 6.64 81.65 6.64 81.02 6.78 80.37 7.05 79.73 7.33 79.12 7.69 78.54 8.13 78.54 8.13 78.54 15.55 78.54 15.55 79.16 15.83 79.7 16.02 80.15 16.12 80.6 16.23 81.11 16.28 81.68 16.28 82.9 16.28 83.86 15.86 84.55 15.03 85.23 14.21 85.58 12.98 85.58 11.36 85.58 9.78 85.31 8.6 84.77 7.82ZM 69.79 16.55C 69.05 17.13 68.34 17.58 67.66 17.89 66.98 18.21 66.23 18.36 65.41 18.36 64.03 18.36 62.96 17.94 62.2 17.1 61.43 16.26 61.05 15.03 61.05 13.41 61.05 13.41 61.05 4.91 61.05 4.91 61.05 4.91 63.25 4.91 63.25 4.91 63.25 4.91 63.25 12.36 63.25 12.36 63.25 13.03 63.29 13.6 63.35 14.07 63.41 14.54 63.54 14.95 63.75 15.28 63.96 15.62 64.23 15.87 64.57 16.03 64.9 16.19 65.39 16.27 66.03 16.27 66.6 16.27 67.22 16.12 67.9 15.82 68.58 15.52 69.21 15.14 69.79 14.68 69.79 14.68 69.79 4.91 69.79 4.91 69.79 4.91 72 4.91 72 4.91 72 4.91 72 18 72 18 72 18 69.79 18 69.79 18 69.79 18 69.79 16.55 69.79 16.55ZM 55.82 18.26C 54.49 18.26 53.47 17.9 52.78 17.18 52.08 16.46 51.73 15.31 51.73 13.72 51.73 13.72 51.73 6.76 51.73 6.76 51.73 6.76 50.25 6.76 50.25 6.76 50.25 6.76 50.25 4.91 50.25 4.91 50.25 4.91 51.73 4.91 51.73 4.91 51.73 4.91 51.73 1.15 51.73 1.15 51.73 1.15 53.94 1.15 53.94 1.15 53.94 1.15 53.94 4.91 53.94 4.91 53.94 4.91 58.48 4.91 58.48 4.91 58.48 4.91 58.48 6.76 58.48 6.76 58.48 6.76 53.94 6.76 53.94 6.76 53.94 6.76 53.94 12.73 53.94 12.73 53.94 13.41 53.95 13.95 53.98 14.34 54.02 14.72 54.12 15.09 54.31 15.42 54.48 15.73 54.72 15.96 55.02 16.11 55.32 16.25 55.78 16.32 56.4 16.32 56.76 16.32 57.13 16.27 57.52 16.17 57.91 16.06 58.2 15.97 58.37 15.9 58.37 15.9 58.48 15.9 58.48 15.9 58.48 15.9 58.48 17.88 58.48 17.88 58.07 17.99 57.62 18.08 57.13 18.15 56.64 18.22 56.21 18.26 55.82 18.26ZM 48.54 7.14C 48.23 7.11 47.87 7.09 47.45 7.09 46.77 7.09 46.11 7.24 45.48 7.54 44.84 7.84 44.23 8.23 43.65 8.71 43.65 8.71 43.65 18 43.65 18 43.65 18 41.45 18 41.45 18 41.45 18 41.45 4.91 41.45 4.91 41.45 4.91 43.65 4.91 43.65 4.91 43.65 4.91 43.65 6.84 43.65 6.84 44.52 6.14 45.29 5.64 45.96 5.35 46.63 5.06 47.31 4.91 48.01 4.91 48.39 4.91 48.67 4.92 48.84 4.94 49.01 4.96 49.27 5 49.61 5.05 49.61 5.05 49.61 7.31 49.61 7.31 49.61 7.31 49.5 7.31 49.5 7.31 49.17 7.23 48.85 7.18 48.54 7.14ZM 35.01 16.61C 34.82 16.74 34.55 16.92 34.22 17.16 33.89 17.4 33.57 17.59 33.25 17.73 32.89 17.91 32.46 18.06 31.99 18.18 31.51 18.3 30.95 18.36 30.31 18.36 29.13 18.36 28.13 17.97 27.31 17.19 26.49 16.41 26.08 15.41 26.08 14.2 26.08 13.21 26.29 12.41 26.72 11.79 27.15 11.18 27.75 10.7 28.54 10.35 29.34 10 30.3 9.76 31.41 9.63 32.53 9.51 33.73 9.41 35.01 9.35 35.01 9.35 35.01 9.01 35.01 9.01 35.01 8.51 34.92 8.1 34.75 7.77 34.57 7.44 34.32 7.18 33.99 7 33.68 6.82 33.3 6.7 32.87 6.63 32.43 6.57 31.97 6.54 31.5 6.54 30.92 6.54 30.27 6.62 29.56 6.77 28.85 6.92 28.12 7.14 27.36 7.43 27.36 7.43 27.24 7.43 27.24 7.43 27.24 7.43 27.24 5.19 27.24 5.19 27.67 5.07 28.29 4.94 29.11 4.8 29.92 4.66 30.72 4.59 31.51 4.59 32.43 4.59 33.23 4.67 33.92 4.82 34.6 4.97 35.19 5.23 35.69 5.6 36.18 5.96 36.56 6.43 36.82 7 37.07 7.57 37.2 8.27 37.2 9.12 37.2 9.12 37.2 18 37.2 18 37.2 18 35.01 18 35.01 18 35.01 18 35.01 16.61 35.01 16.61ZM 35.01 11.13C 34.34 11.17 33.55 11.23 32.64 11.31 31.73 11.39 31.01 11.5 30.48 11.65 29.84 11.83 29.33 12.11 28.94 12.49 28.55 12.86 28.36 13.39 28.36 14.05 28.36 14.8 28.58 15.36 29.04 15.74 29.49 16.12 30.18 16.31 31.11 16.31 31.88 16.31 32.59 16.16 33.23 15.86 33.87 15.56 34.46 15.2 35.01 14.78 35.01 14.78 35.01 11.13 35.01 11.13ZM 21.71 18.26C 20.37 18.26 19.36 17.9 18.66 17.18 17.97 16.46 17.62 15.31 17.62 13.72 17.62 13.72 17.62 6.76 17.62 6.76 17.62 6.76 16.13 6.76 16.13 6.76 16.13 6.76 16.13 4.91 16.13 4.91 16.13 4.91 17.62 4.91 17.62 4.91 17.62 4.91 17.62 1.15 17.62 1.15 17.62 1.15 19.82 1.15 19.82 1.15 19.82 1.15 19.82 4.91 19.82 4.91 19.82 4.91 24.37 4.91 24.37 4.91 24.37 4.91 24.37 6.76 24.37 6.76 24.37 6.76 19.82 6.76 19.82 6.76 19.82 6.76 19.82 12.73 19.82 12.73 19.82 13.41 19.84 13.95 19.87 14.34 19.9 14.72 20.01 15.09 20.2 15.42 20.37 15.73 20.61 15.96 20.91 16.11 21.21 16.25 21.67 16.32 22.29 16.32 22.64 16.32 23.02 16.27 23.41 16.17 23.8 16.06 24.08 15.97 24.25 15.9 24.25 15.9 24.37 15.9 24.37 15.9 24.37 15.9 24.37 17.88 24.37 17.88 23.96 17.99 23.51 18.08 23.02 18.15 22.53 18.22 22.09 18.26 21.71 18.26ZM 5.63 7.66C 6.13 7.77 6.84 7.91 7.77 8.06 8.69 8.22 9.47 8.38 10.11 8.54 11.41 8.89 12.38 9.41 13.04 10.1 13.7 10.8 14.02 11.77 14.02 13.02 14.02 13.7 13.87 14.37 13.55 15.03 13.23 15.7 12.79 16.26 12.22 16.72 11.59 17.22 10.87 17.61 10.03 17.89 9.2 18.18 8.2 18.32 7.03 18.32 5.77 18.32 4.64 18.2 3.63 17.96 2.63 17.73 1.61 17.38 0.57 16.92 0.57 16.92 0.57 14.02 0.57 14.02 0.57 14.02 0.73 14.02 0.73 14.02 1.62 14.75 2.64 15.32 3.79 15.71 4.95 16.11 6.04 16.31 7.05 16.31 8.49 16.31 9.61 16.04 10.41 15.5 11.21 14.96 11.61 14.25 11.61 13.35 11.61 12.57 11.42 12 11.04 11.64 10.66 11.27 10.09 10.98 9.31 10.78 8.73 10.62 8.09 10.5 7.41 10.39 6.72 10.29 6 10.16 5.23 10.01 3.69 9.68 2.54 9.12 1.79 8.33 1.05 7.53 0.68 6.5 0.68 5.23 0.68 3.77 1.29 2.57 2.53 1.63 3.76 0.7 5.33 0.23 7.23 0.23 8.45 0.23 9.58 0.35 10.6 0.59 11.62 0.82 12.53 1.11 13.32 1.45 13.32 1.45 13.32 4.2 13.32 4.2 13.32 4.2 13.16 4.2 13.16 4.2 12.49 3.63 11.62 3.17 10.54 2.79 9.45 2.42 8.35 2.24 7.21 2.24 5.97 2.24 4.97 2.5 4.22 3.01 3.47 3.53 3.09 4.19 3.09 5 3.09 5.73 3.28 6.3 3.65 6.71 4.03 7.13 4.69 7.45 5.63 7.66Z" fill="rgb(255,253,253)"/></svg>