<?xml version="1.0" encoding="utf-8"?>
<svg xmlns="http://www.w3.org/2000/svg"
	xmlns:xlink="http://www.w3.org/1999/xlink"
	width="15px" height="12px" viewBox="0 0 15 12">
<path fillRule="evenodd" d="M 14.61 11.61C 14.35 11.87 14.03 12 13.67 12 13.67 12 1.34 12 1.34 12 0.98 12 0.66 11.87 0.4 11.61 0.14 11.35 0 11.03 0 10.67 0 10.67 0 4.04 0 4.04 0.25 4.32 0.53 4.56 0.85 4.77 2.87 6.14 4.26 7.1 5.01 7.65 5.33 7.88 5.59 8.06 5.78 8.19 5.98 8.32 6.25 8.46 6.58 8.59 6.9 8.73 7.21 8.8 7.5 8.8 7.5 8.8 7.5 8.8 7.5 8.8 7.5 8.8 7.51 8.8 7.51 8.8 7.8 8.8 8.1 8.73 8.43 8.59 8.76 8.46 9.03 8.32 9.22 8.19 9.42 8.06 9.68 7.88 10 7.65 10.95 6.96 12.34 6 14.17 4.77 14.49 4.55 14.76 4.31 15 4.04 15 4.04 15 10.67 15 10.67 15 11.03 14.87 11.35 14.61 11.61ZM 13.57 3.88C 11.48 5.33 10.17 6.23 9.66 6.59 9.6 6.63 9.48 6.71 9.3 6.84 9.12 6.97 8.97 7.08 8.85 7.16 8.73 7.24 8.58 7.33 8.41 7.43 8.24 7.53 8.08 7.6 7.93 7.65 7.78 7.7 7.64 7.73 7.51 7.73 7.51 7.73 7.5 7.73 7.5 7.73 7.5 7.73 7.5 7.73 7.5 7.73 7.37 7.73 7.23 7.7 7.08 7.65 6.93 7.6 6.77 7.53 6.6 7.43 6.43 7.33 6.28 7.24 6.16 7.16 6.04 7.08 5.89 6.97 5.71 6.84 5.53 6.71 5.41 6.63 5.35 6.59 4.85 6.23 4.11 5.72 3.16 5.06 2.21 4.41 1.63 4.01 1.44 3.88 1.1 3.64 0.77 3.32 0.46 2.91 0.16 2.5 0 2.12 0 1.77 0 1.34 0.12 0.98 0.35 0.69 0.58 0.4 0.91 0.26 1.34 0.26 1.34 0.26 13.67 0.26 13.67 0.26 14.03 0.26 14.34 0.39 14.61 0.65 14.87 0.91 15 1.22 15 1.59 15 2.03 14.87 2.45 14.59 2.85 14.32 3.25 13.98 3.59 13.57 3.88Z" fill="rgb(175,175,175)" opacity="0.63"/></svg>